<?xml version="1.0" standalone="no"?>
<!DOCTYPE svg PUBLIC "-//W3C//DTD SVG 20010904//EN"
 "http://www.w3.org/TR/2001/REC-SVG-20010904/DTD/svg10.dtd">
<svg version="1.0" xmlns="http://www.w3.org/2000/svg"
 width="97.000000pt" height="97.000000pt" viewBox="0 0 97.000000 97.000000"
 preserveAspectRatio="xMidYMid meet">
<metadata>
Created by potrace 1.14, written by Peter Selinger 2001-2017
</metadata>
<g transform="translate(0.000000,97.000000) scale(0.100000,-0.100000)"
fill="#000000" stroke="none">
<path d="M389 916 l-57 -43 -155 1 c-179 2 -175 7 -75 -90 l63 -62 67 2 67 2
35 -144 36 -143 -31 -122 c-18 -67 -34 -127 -38 -134 -4 -7 -31 12 -73 53
l-67 64 -71 -70 c-70 -69 -70 -70 -48 -84 41 -25 251 -136 258 -136 4 0 39 33
78 74 l70 74 0 401 c0 220 -1 401 -2 401 0 -1 -26 -20 -57 -44z"/>
<path d="M520 873 c0 -48 -1 -229 -1 -402 l0 -313 53 -57 c55 -59 89 -91 95
-91 4 0 225 117 258 137 19 11 16 16 -49 82 l-70 70 -70 -66 -70 -66 -8 29
c-5 16 -10 36 -11 44 -2 8 -14 59 -26 112 l-23 96 26 104 c15 57 31 119 36
138 l9 35 68 -2 68 -1 73 76 c39 42 72 76 72 77 0 0 -72 0 -160 -1 l-159 0
-56 44 -55 44 0 -89z"/>
</g>
</svg>
